<?xml version="1.0" encoding="UTF-8"?>
<svg version="1.1" xmlns="http://www.w3.org/2000/svg" width="244" height="230">
<path d="M0 0 C80.52 0 161.04 0 244 0 C244 75.9 244 151.8 244 230 C163.48 230 82.96 230 0 230 C0 154.1 0 78.2 0 0 Z " fill="#FEFEFE" transform="translate(0,0)"/>
<path d="M0 0 C2.7178732 2.37551397 3.90680362 4.67449147 5.26171875 8 C5.65810547 8.969375 6.05449219 9.93875 6.46289062 10.9375 C6.86701172 11.948125 7.27113281 12.95875 7.6875 14 C8.31108398 15.5159375 8.31108398 15.5159375 8.94726562 17.0625 C12 24.60160099 12 24.60160099 12 28 C5.73 30.97 -0.54 33.94 -7 37 C-7 37.66 -7 38.32 -7 39 C-6.16339844 39.32871094 -5.32679688 39.65742187 -4.46484375 39.99609375 C9.50495191 45.70468135 21.63356384 53.00867633 33 63 C33.85207031 63.71929687 34.70414063 64.43859375 35.58203125 65.1796875 C45.62071806 73.84595783 56.37546394 85.3551333 61 98 C61.66 98 62.32 98 63 98 C64.17112946 100.62309099 65.33705964 103.24828142 66.5 105.875 C66.83386719 106.62136719 67.16773438 107.36773437 67.51171875 108.13671875 C67.82753906 108.85214844 68.14335937 109.56757813 68.46875 110.3046875 C68.76201172 110.96452637 69.05527344 111.62436523 69.35742188 112.30419922 C70 114 70 114 70 116 C68.84242188 116.47050781 67.68484375 116.94101563 66.4921875 117.42578125 C64.95307496 118.05456503 63.41401525 118.68347814 61.875 119.3125 C61.11445313 119.62123047 60.35390625 119.92996094 59.5703125 120.24804688 C56.19137213 121.6316647 52.93411071 123.03450231 49.6953125 124.73046875 C47 126 47 126 43 126 C42.32591692 124.73308493 41.66099503 123.46129251 41 122.1875 C40.62875 121.47980469 40.2575 120.77210938 39.875 120.04296875 C39 118 39 118 39 115 C38.01 115 37.02 115 36 115 C35.82984375 116.32837891 35.82984375 116.32837891 35.65625 117.68359375 C32.48833674 133.69286967 17.2807041 149.01615653 6 160 C5.53851563 160.50660156 5.07703125 161.01320312 4.6015625 161.53515625 C-3.0255673 169.70176596 -12.74697487 175.42968183 -22.375 180.9375 C-23.02847412 181.31503418 -23.68194824 181.69256836 -24.35522461 182.08154297 C-28.49479064 184.39236601 -32.39506572 185.86364025 -37 187 C-40.11915539 181.13433168 -42.83872664 175.16071838 -45.3125 169 C-45.57885254 168.3412085 -45.84520508 167.68241699 -46.11962891 167.00366211 C-48 162.2533484 -48 162.2533484 -48 160 C-47.49025635 159.76812988 -46.9805127 159.53625977 -46.45532227 159.29736328 C-44.15466936 158.24643155 -41.85858927 157.18586299 -39.5625 156.125 C-38.35883789 155.57779297 -38.35883789 155.57779297 -37.13085938 155.01953125 C-36.36708984 154.66503906 -35.60332031 154.31054688 -34.81640625 153.9453125 C-34.10943604 153.62062988 -33.40246582 153.29594727 -32.67407227 152.96142578 C-30.82071739 152.10218294 -30.82071739 152.10218294 -30 150 C-31.00546875 149.89042969 -32.0109375 149.78085938 -33.046875 149.66796875 C-58.4134499 146.01594679 -84.32008484 124.19857459 -99.27905273 104.59106445 C-106.97208139 94.19367418 -113.70502155 83.26329373 -118 71 C-117.04480469 70.62488281 -116.08960937 70.24976562 -115.10546875 69.86328125 C-107.99841296 67.055123 -100.98001173 64.16538674 -94.07421875 60.8828125 C-92 60 -92 60 -90 60 C-89.78085938 60.58265625 -89.56171875 61.1653125 -89.3359375 61.765625 C-85.06953215 73.73981828 -85.06953215 73.73981828 -78 84 C-77.70867187 83.12859375 -77.41734375 82.2571875 -77.1171875 81.359375 C-74.31650236 73.22153516 -71.05806805 65.61410707 -67 58 C-66.34 58 -65.68 58 -65 58 C-64.73445313 57.27167969 -64.46890625 56.54335937 -64.1953125 55.79296875 C-59.70078328 45.29104591 -50.78903658 34.96077891 -42.05859375 27.7109375 C-39.84774378 25.87345688 -37.74321446 23.94324772 -35.625 22 C-24.97020569 12.5493434 -12.70862414 6.23025826 0 0 Z " fill="#FCFCFC" transform="translate(143,24)"/>
<path d="M0 0 C0.21914063 0.58265625 0.43828125 1.1653125 0.6640625 1.765625 C8.65372205 22.42181797 20.96550102 39.86541572 36 56 C36.63679688 56.6909375 37.27359375 57.381875 37.9296875 58.09375 C47.50182048 68.10278531 59.10787349 75.1279105 71 82 C68.69920514 84.38099686 66.51034093 86.56759355 63.6875 88.3125 C62.88892578 88.83263672 62.88892578 88.83263672 62.07421875 89.36328125 C53.08984634 92.12119594 40.11966511 84.25989036 32.1875 80.0625 C5.32931434 64.74897021 -17.66814477 40.50016558 -28 11 C-27.04480469 10.62488281 -26.08960937 10.24976562 -25.10546875 9.86328125 C-17.99841296 7.055123 -10.98001173 4.16538674 -4.07421875 0.8828125 C-2 0 -2 0 0 0 Z " fill="#71506F" transform="translate(53,84)"/>
<path d="M0 0 C2.7178732 2.37551397 3.90680362 4.67449147 5.26171875 8 C5.65810547 8.969375 6.05449219 9.93875 6.46289062 10.9375 C6.86701172 11.948125 7.27113281 12.95875 7.6875 14 C8.31108398 15.5159375 8.31108398 15.5159375 8.94726562 17.0625 C12 24.60160099 12 24.60160099 12 28 C10.84886719 28.51046875 9.69773437 29.0209375 8.51171875 29.546875 C-7.8443961 36.95498809 -23.72484365 45.76167595 -37 58 C-37.60408691 58.5563916 -38.20817383 59.1127832 -38.83056641 59.68603516 C-49.01553544 69.17527564 -58.70955775 79.4191155 -65 92 C-65.66 92 -66.32 92 -67 92 C-67.33 93.32 -67.66 94.64 -68 96 C-71.58758097 92.61172908 -74.71263892 89.39877132 -77 85 C-77 79.05301066 -74.50791897 74.25508021 -72 69 C-71.08038579 66.98050629 -70.16373603 64.95966013 -69.25 62.9375 C-68.50037868 61.29149416 -67.75051581 59.64559818 -67 58 C-66.34 58 -65.68 58 -65 58 C-64.73445313 57.27167969 -64.46890625 56.54335937 -64.1953125 55.79296875 C-59.70078328 45.29104591 -50.78903658 34.96077891 -42.05859375 27.7109375 C-39.84774378 25.87345688 -37.74321446 23.94324772 -35.625 22 C-24.97020569 12.5493434 -12.70862414 6.23025826 0 0 Z " fill="#735171" transform="translate(143,24)"/>
<path d="M0 0 C1.64584062 0.7694088 3.26789248 1.59015907 4.875 2.4375 C6.04933594 2.96085937 7.22367188 3.48421875 8.43359375 4.0234375 C30.41990975 14.00926522 55.39944574 33.59636643 65.06640625 56.2265625 C65.33324219 56.95617187 65.60007812 57.68578125 65.875 58.4375 C66.535 58.4375 67.195 58.4375 67.875 58.4375 C69.04612946 61.06059099 70.21205964 63.68578142 71.375 66.3125 C71.70886719 67.05886719 72.04273438 67.80523437 72.38671875 68.57421875 C72.70253906 69.28964844 73.01835937 70.00507813 73.34375 70.7421875 C73.63701172 71.40202637 73.93027344 72.06186523 74.23242188 72.74169922 C74.875 74.4375 74.875 74.4375 74.875 76.4375 C73.71742188 76.90800781 72.55984375 77.37851563 71.3671875 77.86328125 C69.82807496 78.49206503 68.28901525 79.12097814 66.75 79.75 C65.60917969 80.2130957 65.60917969 80.2130957 64.4453125 80.68554688 C61.06637213 82.0691647 57.80911071 83.47200231 54.5703125 85.16796875 C51.875 86.4375 51.875 86.4375 47.875 86.4375 C47.36710937 85.41011719 46.85921875 84.38273437 46.3359375 83.32421875 C44.20152148 79.01889205 42.04174698 74.72662723 39.875 70.4375 C39.37484375 69.44105469 38.8746875 68.44460937 38.359375 67.41796875 C28.7950546 49.08635464 14.5344748 31.52120318 -2.125 19.25 C-2.79789063 18.74275391 -3.47078125 18.23550781 -4.1640625 17.71289062 C-8.33287099 14.61042793 -12.5630892 11.92635498 -17.125 9.4375 C-6.1931677 -1.9175 -6.1931677 -1.9175 0 0 Z " fill="#714F6F" transform="translate(138.125,63.5625)"/>
<path d="M0 0 C0.66 0 1.32 0 2 0 C3.37557241 2.19730384 4.72463252 4.40489938 6.0625 6.625 C6.45244141 7.24246094 6.84238281 7.85992187 7.24414062 8.49609375 C9.12010955 11.65037778 10.01861537 13.40058514 9.90234375 17.14453125 C4.8122675 33.25208855 -8.13974936 47.45186122 -20 59 C-20.46148437 59.50660156 -20.92296875 60.01320312 -21.3984375 60.53515625 C-29.0255673 68.70176596 -38.74697487 74.42968183 -48.375 79.9375 C-49.35521118 80.50380127 -49.35521118 80.50380127 -50.35522461 81.08154297 C-54.49479064 83.39236601 -58.39506572 84.86364025 -63 86 C-66.11915539 80.13433168 -68.83872664 74.16071838 -71.3125 68 C-71.57885254 67.3412085 -71.84520508 66.68241699 -72.11962891 66.00366211 C-74 61.2533484 -74 61.2533484 -74 59 C-72.52466797 58.35998047 -72.52466797 58.35998047 -71.01953125 57.70703125 C-54.47756349 50.33370487 -38.49462725 41.16658456 -25 29 C-23.56527344 27.77796875 -23.56527344 27.77796875 -22.1015625 26.53125 C-14.09056906 19.60010024 -3.40077375 10.20232126 0 0 Z " fill="#71506F" transform="translate(169,125)"/>
<path d="M0 0 C3.4375 1.75 3.4375 1.75 6 4 C6.763125 4.66 7.52625 5.32 8.3125 6 C11.58531279 9.87888923 11.3387828 14.64096193 11.28125 19.53125 C10.71918323 24.46494723 7.96117737 27.15324851 4.375 30.3125 C-0.74525941 33.95057906 -5.86865599 33.68300503 -12 33 C-16.77202935 31.11652647 -20.05913015 27.49480576 -22.33984375 22.953125 C-23.81186518 18.59803201 -23.85873872 14.33742251 -22.26953125 10.01171875 C-17.32104799 0.57930372 -9.87926661 -1.03321843 0 0 Z " fill="#735271" transform="translate(129,104)"/>
<path d="M0 0 C0 0.99 0 1.98 0 3 C-1.96875 4.60546875 -1.96875 4.60546875 -4.5 6.1875 C-5.3353125 6.71730469 -6.170625 7.24710937 -7.03125 7.79296875 C-7.6809375 8.19128906 -8.330625 8.58960937 -9 9 C-9.33 8.01 -9.66 7.02 -10 6 C-6.7 4.02 -3.4 2.04 0 0 Z " fill="#E8E2E7" transform="translate(133,62)"/>
</svg>
